arm26_states
version=1
nRows=17
nColumns=17
inDegrees=yes

# SIMM Motion File Header:
name arm26_states
datacolumns 17
datarows 17
otherdata 1
range 0.29118473 0.33696701
endheader
time	/jointset/r_shoulder/r_shoulder_elev/value	/jointset/r_shoulder/r_shoulder_elev/speed	/jointset/r_elbow/r_elbow_flex/value	/jointset/r_elbow/r_elbow_flex/speed	/forceset/TRIlong/activation	/forceset/TRIlong/fiber_length	/forceset/TRIlat/activation	/forceset/TRIlat/fiber_length	/forceset/TRImed/activation	/forceset/TRImed/fiber_length	/forceset/BIClong/activation	/forceset/BIClong/fiber_length	/forceset/BICshort/activation	/forceset/BICshort/fiber_length	/forceset/BRA/activation	/forceset/BRA/fiber_length
      0.29118473	     -4.86044916	    -15.02769528	     22.94752848	    -90.50693236	     -0.01204834	      0.14277999	     -0.01204834	      0.07967042	     -0.01204834	      0.07465727	     -0.01204834	      0.14429164	     -0.01204834	      0.14255531	     -0.01204834	      0.08789520
      0.29356611	     -4.89656712	    -15.30697761	     22.73380608	    -88.98132631	     -0.01235494	      0.14267218	     -0.01235494	      0.07958158	     -0.01235494	      0.07456888	     -0.01235494	      0.14438272	     -0.01235494	      0.14264419	     -0.01235494	      0.08794487
      0.29594748	     -4.93335542	    -15.59035501	     22.52375749	    -87.42267498	     -0.01266155	      0.14256542	     -0.01266155	      0.07949423	     -0.01266155	      0.07448198	     -0.01266155	      0.14447032	     -0.01266155	      0.14273145	     -0.01266155	      0.08799376
      0.29896672	     -4.98097672	    -15.95633329	     22.26285194	    -85.39574179	     -0.01305027	      0.14243158	     -0.01305027	      0.07938568	     -0.01305027	      0.07437399	     -0.01305027	      0.14458174	     -0.01305027	      0.14283974	     -0.01305027	      0.08805457
      0.30137650	     -5.01978345	    -16.25182778	     22.05905129	    -83.74437326	     -0.01336053	      0.14232602	     -0.01336053	      0.07930084	     -0.01336053	      0.07428960	     -0.01336053	      0.14466615	     -0.01336053	      0.14292427	     -0.01336053	      0.08810215
      0.30378628	     -5.05930684	    -16.55130175	     21.85926981	    -82.05935438	     -0.01367079	      0.14222161	     -0.01367079	      0.07921764	     -0.01367079	      0.07420685	     -0.01367079	      0.14475155	     -0.01367079	      0.14300712	     -0.01367079	      0.08814884
      0.30669280	     -5.10794222	    -16.91552292	     21.62376022	    -79.99044132	     -0.01404500	      0.14209725	     -0.01404500	      0.07911951	     -0.01404500	      0.07410925	     -0.01404500	      0.14485069	     -0.01404500	      0.14310481	     -0.01404500	      0.08820398
      0.30959932	     -5.15764113	    -17.28341842	     21.39432295	    -77.87980425	     -0.01441922	      0.14197463	     -0.01441922	      0.07902385	     -0.01441922	      0.07401413	     -0.01441922	      0.14494951	     -0.01441922	      0.14320006	     -0.01441922	      0.08825778
      0.31250584	     -5.20841235	    -17.65266306	     21.17107269	    -75.73576025	     -0.01479343	      0.14185380	     -0.01479343	      0.07893070	     -0.01479343	      0.07392152	     -0.01479343	      0.14504342	     -0.01479343	      0.14329286	     -0.01479343	      0.08831022
      0.31541236	     -5.26025948	    -18.02427881	     20.95410587	    -73.55408528	     -0.01516765	      0.14173480	     -0.01516765	      0.07884012	     -0.01516765	      0.07383147	     -0.01516765	      0.14513839	     -0.01516765	      0.14338322	     -0.01516765	      0.08836128
      0.31831888	     -5.31318684	    -18.39514688	     20.74352285	    -71.34608362	     -0.01554186	      0.14161766	     -0.01554186	      0.07875213	     -0.01554186	      0.07374401	     -0.01554186	      0.14522750	     -0.01554186	      0.14347115	     -0.01554186	      0.08841092
      0.32122540	     -5.36719250	    -18.76672865	     20.53940163	    -69.10585761	     -0.01591608	      0.14150242	     -0.01591608	      0.07866678	     -0.01591608	      0.07365918	     -0.01591608	      0.14531786	     -0.01591608	      0.14355666	     -0.01591608	      0.08845912
      0.32413192	     -5.42227571	    -19.13599415	     20.34182582	    -66.84439920	     -0.01629029	      0.14138911	     -0.01629029	      0.07858410	     -0.01629029	      0.07357702	     -0.01629029	      0.14540304	     -0.01629029	      0.14363976	     -0.01629029	      0.08850586
      0.32703844	     -5.47842985	    -19.50382231	     20.15085822	    -64.55798738	     -0.01666451	      0.14127776	     -0.01666451	      0.07850411	     -0.01666451	      0.07349754	     -0.01666451	      0.14548823	     -0.01666451	      0.14372046	     -0.01666451	      0.08855112
      0.32994496	     -5.53564839	    -19.86808092	     19.96656300	    -62.25425700	     -0.01703872	      0.14116840	     -0.01703872	      0.07842684	     -0.01703872	      0.07342078	     -0.01703872	      0.14556980	     -0.01703872	      0.14379878	     -0.01703872	      0.08859489
      0.33366260	     -5.61036872	    -20.32862128	     19.74063906	    -59.28236978	     -0.01751737	      0.14103147	     -0.01751737	      0.07833200	     -0.01751737	      0.07332658	     -0.01751737	      0.14567233	     -0.01751737	      0.14389552	     -0.01751737	      0.08864866
      0.33696701	     -5.67820918	    -20.73056268	     19.54913278	    -56.62529381	     -0.01794281	      0.14091256	     -0.01794281	      0.07825149	     -0.01794281	      0.07324664	     -0.01794281	      0.14575898	     -0.01794281	      0.14397829	     -0.01794281	      0.08869436
